<svg xmlns="http://www.w3.org/2000/svg" width="1em" height="1em" version="1.1" viewBox="0 0 752 752">
 <g>
  <path d="m454.93 395.73h-217.05c-5.4492 0-9.8672 4.418-9.8672 9.8672 0 5.4492 4.418 9.8633 9.8672 9.8633h217.05c5.4492 0 9.8672-4.4141 9.8672-9.8633 0-5.4492-4.418-9.8672-9.8672-9.8672z"/>
  <path d="m514.13 395.73h-19.73c-5.4492 0-9.8672 4.418-9.8672 9.8672 0 5.4492 4.418 9.8633 9.8672 9.8633h19.734-0.003906c5.4492 0 9.8672-4.4141 9.8672-9.8633 0-5.4492-4.418-9.8672-9.8672-9.8672z"/>
  <path d="m257.61 435.2h-19.73c-5.4492 0-9.8672 4.418-9.8672 9.8672 0 5.4492 4.418 9.8633 9.8672 9.8633h19.73c5.4492 0 9.8672-4.4141 9.8672-9.8633 0-5.4492-4.418-9.8672-9.8672-9.8672z"/>
  <path d="m514.13 435.2h-217.06c-5.4492 0-9.8672 4.418-9.8672 9.8672 0 5.4492 4.418 9.8633 9.8672 9.8633h217.06c5.4492 0 9.8672-4.4141 9.8672-9.8633 0-5.4492-4.418-9.8672-9.8672-9.8672z"/>
  <path d="m208.27 494.4h335.45c2.6172 0 5.1289-1.043 6.9766-2.8906 1.8516-1.8516 2.8906-4.3594 2.8906-6.9766v-217.06c0-2.6172-1.0391-5.125-2.8906-6.9766-1.8477-1.8516-4.3594-2.8906-6.9766-2.8906h-335.45c-5.4492 0-9.8633 4.418-9.8633 9.8672v217.06c0 2.6172 1.0391 5.125 2.8867 6.9766 1.8516 1.8477 4.3594 2.8906 6.9766 2.8906zm9.8672-217.06h315.72v197.32h-315.72z"/>
 </g>
</svg>